<?xml version="1.0" encoding="iso-8859-1"?>
<!-- Generator: Adobe Illustrator 19.0.0, SVG Export Plug-In . SVG Version: 6.00 Build 0)  -->
<svg version="1.1" id="Layer_1" xmlns="http://www.w3.org/2000/svg" xmlns:xlink="http://www.w3.org/1999/xlink" x="0px" y="0px"
	 viewBox="0 0 512.001 512.001" style="enable-background:new 0 0 512.001 512.001;" xml:space="preserve">
<path style="fill:#A7A9AC;" d="M401.611,479.455l-98.776-195.929c-4.494-8.914-2.335-19.744,5.23-26.256l102.516-88.213
	c11.88-10.221,30.39-4.865,34.962,10.136l65.511,214.892c2.341,7.68,0.258,16.026-5.42,21.704l-69.25,69.25
	C425.943,495.478,408.288,492.698,401.611,479.455z"/>
<path style="fill:#BCBEC0;" d="M228.473,209.163L32.545,110.389c-13.195-6.651-16.05-24.306-5.584-34.772l69.25-69.25
	c5.676-5.678,14.023-7.763,21.703-5.421l214.892,65.511c14.991,4.571,20.364,23.075,10.136,34.962l-88.213,102.516
	C248.219,211.5,237.388,213.659,228.473,209.163z"/>
<path style="fill:#D1D3D4;" d="M186.499,383.618l-19.477-38.64l-38.64-19.476c-12.617-6.36-15.889-22.891-6.692-33.58
	L343.981,33.568c0.184-0.214,0.374-0.424,0.566-0.632c36.703-39.443,98.744-40.702,136.981-2.466
	c37.626,37.623,37.563,99.331-2.335,136.86c-0.614,0.58-258.474,222.427-259.114,222.979
	C209.443,399.459,192.897,396.314,186.499,383.618z"/>
<g>
	<path style="fill:#BCBEC0;" d="M481.529,30.471c-0.001-0.001-0.003-0.001-0.004-0.003L167.017,344.975l0.004,0.003l19.477,38.64
		c6.399,12.696,22.946,15.841,33.58,6.692c0.64-0.551,258.5-222.399,259.114-222.979C519.113,129.78,519.133,68.077,481.529,30.471z
		"/>
	<path style="fill:#BCBEC0;" d="M163.797,500.052L112.9,399.1L11.947,348.203c-13.195-6.653-16.05-24.306-5.584-34.772
		l54.121-54.121c6.633-6.634,16.774-8.262,25.151-4.038l107.347,54.121c4.157,2.095,7.529,5.468,9.624,9.624l54.121,107.346
		c4.225,8.377,2.596,18.518-4.038,25.151l-54.122,54.122C188.128,516.077,170.473,513.295,163.797,500.052z"/>
</g>
<path style="fill:#A7A9AC;" d="M256.729,426.363l-54.121-107.346c-1.047-2.078-2.414-3.961-4.039-5.585L112.901,399.1
	l50.897,100.952c6.675,13.239,24.328,16.028,34.771,5.584l54.122-54.122C259.324,444.88,260.952,434.738,256.729,426.363z"/>
<g>
</g>
<g>
</g>
<g>
</g>
<g>
</g>
<g>
</g>
<g>
</g>
<g>
</g>
<g>
</g>
<g>
</g>
<g>
</g>
<g>
</g>
<g>
</g>
<g>
</g>
<g>
</g>
<g>
</g>
</svg>
