<?xml version="1.0" encoding="iso-8859-1"?>
<!-- Generator: Adobe Illustrator 19.0.0, SVG Export Plug-In . SVG Version: 6.00 Build 0)  -->
<svg version="1.1" id="Layer_1" xmlns="http://www.w3.org/2000/svg" xmlns:xlink="http://www.w3.org/1999/xlink" x="0px" y="0px"
	 viewBox="0 0 512 512" style="enable-background:new 0 0 512 512;" xml:space="preserve">
<path style="fill:#D1D3D4;" d="M493.868,236.963H18.113C8.11,236.963,0,228.854,0,218.851V101.405
	c0-10.003,8.11-18.113,18.113-18.113h414.13c6.733,0,12.909,3.735,16.038,9.696l61.626,117.446
	C516.227,222.478,507.472,236.963,493.868,236.963z"/>
<path style="fill:#BCBEC0;" d="M509.906,210.436L448.28,92.989c-3.129-5.963-9.305-9.696-16.038-9.696H255.99v153.67h237.878
	C507.469,236.963,516.229,222.48,509.906,210.436z"/>
<path style="fill:#939598;" d="M340.515,236.859c10.003,0,18.113-8.11,18.113-18.113V83.293h-36.225v135.455
	C322.403,228.751,330.513,236.859,340.515,236.859z"/>
<path style="fill:#A7A9AC;" d="M171.465,236.859c10.003,0,18.113-8.11,18.113-18.113V83.293h-36.225v135.455
	C153.353,228.751,161.462,236.859,171.465,236.859z"/>
<path style="fill:#F2C500;" d="M493.868,381.342H388.803c-10.06,0-18.052-8.232-18.113-18.291c-0.231-38.405-58.258-38.453-58.491,0
	c-0.06,10.06-8.053,18.291-18.113,18.291h-95.501c-10.061,0-18.052-8.232-18.114-18.291c-0.232-38.401-58.27-38.453-58.502,0
	c-0.06,10.06-8.053,18.291-18.113,18.291H76.833c-10.003,0-18.113-8.11-18.113-18.113v-40.608H18.113
	C8.11,322.621,0,314.511,0,304.508V200.736h435.147c10.003,0,18.113,8.11,18.113,18.113v40.608h40.608
	c10.003,0,18.113,8.11,18.113,18.113v85.66C511.981,373.232,503.871,381.342,493.868,381.342z"/>
<g>
	<path style="fill:#F59D00;" d="M493.868,259.457H453.26v-40.608c0-10.003-8.11-18.113-18.113-18.113H255.99v180.606h38.097
		c10.06,0,18.052-8.232,18.112-18.291c0.232-38.385,58.26-38.463,58.49,0c0.06,10.06,8.053,18.291,18.114,18.291h105.065
		c10.003,0,18.113-8.11,18.113-18.113v-85.66C511.981,267.566,503.871,259.457,493.868,259.457z"/>
	<path style="fill:#F59D00;" d="M94.946,381.342H18.113C8.11,381.342,0,373.232,0,363.229v-76.833h76.833
		c10.003,0,18.113,8.11,18.113,18.113C94.946,304.508,94.946,381.342,94.946,381.342z"/>
</g>
<path style="fill:#808285;" d="M151.225,428.707c-36.104,0-65.479-29.374-65.479-65.478c0-36.098,29.374-65.467,65.479-65.467
	s65.479,29.369,65.479,65.467C216.704,399.334,187.331,428.707,151.225,428.707z"/>
<path style="fill:#E87E04;" d="M511.981,295.682h-76.833c-10.003,0-18.113-8.11-18.113-18.113v-76.833h76.833
	c10.003,0,18.113,8.11,18.113,18.113V295.682z"/>
<path style="fill:#6D6E71;" d="M341.454,428.707c-36.104,0-65.479-29.374-65.479-65.478c0-36.098,29.374-65.467,65.479-65.467
	c36.098,0,65.466,29.369,65.466,65.467C406.92,399.334,377.552,428.707,341.454,428.707z"/>
<g>
</g>
<g>
</g>
<g>
</g>
<g>
</g>
<g>
</g>
<g>
</g>
<g>
</g>
<g>
</g>
<g>
</g>
<g>
</g>
<g>
</g>
<g>
</g>
<g>
</g>
<g>
</g>
<g>
</g>
</svg>
