<?xml version="1.0" encoding="iso-8859-1"?>
<!-- Generator: Adobe Illustrator 19.0.0, SVG Export Plug-In . SVG Version: 6.00 Build 0)  -->
<svg version="1.1" id="Layer_1" xmlns="http://www.w3.org/2000/svg" xmlns:xlink="http://www.w3.org/1999/xlink" x="0px" y="0px"
	 viewBox="0 0 512 512" style="enable-background:new 0 0 512 512;" xml:space="preserve">
<path style="fill:#D1D3D4;" d="M493.887,237.007H18.113C8.11,237.007,0,228.897,0,218.893V101.435
	c0-10.003,8.11-18.113,18.113-18.113h263.233c88.12,0,163.64,37.894,227.169,124.889c4.021,5.508,4.608,12.806,1.52,18.886
	C506.946,233.177,500.706,237.007,493.887,237.007z"/>
<path style="fill:#BCBEC0;" d="M508.515,208.213C445.73,122.235,370.689,83.322,281.346,83.322H256v153.685h237.887
	c6.819,0,13.06-3.829,16.148-9.909C513.124,221.019,512.536,213.719,508.515,208.213z"/>
<path style="fill:#FF5E5B;" d="M493.887,364.101H18.113C8.11,364.101,0,355.991,0,345.988v-50.415
	c0-10.003,8.11-18.113,18.113-18.113h475.774c10.003,0,18.113,8.11,18.113,18.113v50.415
	C512,355.991,503.89,364.101,493.887,364.101z"/>
<path style="fill:#FF423D;" d="M493.887,277.459H256v86.642h237.887c10.003,0,18.113-8.11,18.113-18.113v-50.415
	C512,285.569,503.89,277.459,493.887,277.459z"/>
<path style="fill:#A7A9AC;" d="M334.491,200.78V88.667c-12.008-2.422-23.582-3.997-36.226-4.798V200.78h-132.83V83.322h-36.226
	V200.78H0v112.906h441.999V200.78H334.491z"/>
<path style="fill:#939598;" d="M441.999,200.78H334.491V88.667c-12.008-2.422-23.582-3.997-36.226-4.798V200.78H256v112.906h185.999
	V200.78z"/>
<path style="fill:#808285;" d="M493.887,428.678H18.113C8.11,428.678,0,420.568,0,410.565c0-10.003,8.11-18.113,18.113-18.113
	h475.774c10.003,0,18.113,8.11,18.113,18.113C512,420.568,503.89,428.678,493.887,428.678z"/>
<path style="fill:#F2C500;" d="M512,313.686H405.772V200.78h88.115c10.003,0,18.113,8.11,18.113,18.113V313.686z"/>
<path style="fill:#6D6E71;" d="M493.887,392.452H256v36.226h237.887c10.003,0,18.113-8.11,18.113-18.113
	C512,400.562,503.89,392.452,493.887,392.452z"/>
<g>
</g>
<g>
</g>
<g>
</g>
<g>
</g>
<g>
</g>
<g>
</g>
<g>
</g>
<g>
</g>
<g>
</g>
<g>
</g>
<g>
</g>
<g>
</g>
<g>
</g>
<g>
</g>
<g>
</g>
</svg>
